<mxfile host="app.diagrams.net" modified="2023-08-21T03:08:28.397Z" agent="Mozilla/5.0 (Windows NT 10.0; Win64; x64) AppleWebKit/537.36 (KHTML, like Gecko) Chrome/115.0.0.0 Safari/537.36 OPR/101.0.0.0" etag="G_O4icy_pJHAF87MU9k2" version="21.6.8" type="github">
  <diagram name="Page-1" id="I06q45N_JLSzf3Cnr9Or">
    <mxGraphModel dx="2033" dy="1149" grid="1" gridSize="10" guides="1" tooltips="1" connect="1" arrows="1" fold="1" page="1" pageScale="1" pageWidth="850" pageHeight="1100" math="0" shadow="0">
      <root>
        <mxCell id="0" />
        <mxCell id="1" parent="0" />
        <mxCell id="6uN0h12TOaU6zcGamB1m-1" value="Inventory Manager&amp;nbsp;" style="swimlane;whiteSpace=wrap;html=1;" vertex="1" parent="1">
          <mxGeometry x="40" y="60" width="410" height="360" as="geometry" />
        </mxCell>
        <mxCell id="6uN0h12TOaU6zcGamB1m-2" value="" style="endArrow=none;html=1;rounded=0;" edge="1" parent="6uN0h12TOaU6zcGamB1m-1">
          <mxGeometry width="50" height="50" relative="1" as="geometry">
            <mxPoint y="80" as="sourcePoint" />
            <mxPoint x="410" y="80" as="targetPoint" />
          </mxGeometry>
        </mxCell>
        <mxCell id="6uN0h12TOaU6zcGamB1m-3" value="&lt;font style=&quot;font-size: 17px;&quot;&gt;- items: List&amp;lt;InventoryItem&amp;gt;&lt;/font&gt;" style="text;strokeColor=none;align=center;fillColor=none;html=1;verticalAlign=middle;whiteSpace=wrap;rounded=0;" vertex="1" parent="6uN0h12TOaU6zcGamB1m-1">
          <mxGeometry x="105" y="40" width="190" height="30" as="geometry" />
        </mxCell>
        <mxCell id="6uN0h12TOaU6zcGamB1m-4" value="&lt;font style=&quot;font-size: 17px;&quot;&gt;+addItem(string id, string name, double price, int quantity, string type)&lt;/font&gt;" style="text;strokeColor=none;align=center;fillColor=none;html=1;verticalAlign=middle;whiteSpace=wrap;rounded=0;strokeWidth=10;" vertex="1" parent="6uN0h12TOaU6zcGamB1m-1">
          <mxGeometry x="10" y="100" width="400" height="30" as="geometry" />
        </mxCell>
        <mxCell id="6uN0h12TOaU6zcGamB1m-5" value="&lt;span style=&quot;font-size: 17px;&quot;&gt;+RemoveItem(string id): bool&lt;/span&gt;" style="text;strokeColor=none;align=center;fillColor=none;html=1;verticalAlign=middle;whiteSpace=wrap;rounded=0;strokeWidth=10;" vertex="1" parent="6uN0h12TOaU6zcGamB1m-1">
          <mxGeometry x="10" y="160" width="400" height="30" as="geometry" />
        </mxCell>
        <mxCell id="6uN0h12TOaU6zcGamB1m-7" value="&lt;span style=&quot;font-size: 17px;&quot;&gt;+searchItems(string query, double minPrice = null, double maxPrice =null&lt;/span&gt;" style="text;strokeColor=none;align=center;fillColor=none;html=1;verticalAlign=middle;whiteSpace=wrap;rounded=0;strokeWidth=10;" vertex="1" parent="6uN0h12TOaU6zcGamB1m-1">
          <mxGeometry x="5" y="220" width="400" height="30" as="geometry" />
        </mxCell>
        <mxCell id="6uN0h12TOaU6zcGamB1m-6" value="&lt;span style=&quot;font-size: 17px;&quot;&gt;+RestockItem(string id, int quantity): bool&lt;/span&gt;" style="text;strokeColor=none;align=center;fillColor=none;html=1;verticalAlign=middle;whiteSpace=wrap;rounded=0;strokeWidth=10;" vertex="1" parent="6uN0h12TOaU6zcGamB1m-1">
          <mxGeometry y="280" width="400" height="30" as="geometry" />
        </mxCell>
        <mxCell id="6uN0h12TOaU6zcGamB1m-8" value="InventoryItem" style="swimlane;whiteSpace=wrap;html=1;" vertex="1" parent="1">
          <mxGeometry x="490" y="55" width="410" height="360" as="geometry" />
        </mxCell>
        <mxCell id="6uN0h12TOaU6zcGamB1m-9" value="&lt;span style=&quot;font-size: 17px;&quot;&gt;-idNumber: string&lt;br&gt;- Name: string&lt;br&gt;-Price: double&lt;br&gt;-Quantity: int&lt;br&gt;- Type: string&lt;br&gt;&lt;br&gt;&lt;/span&gt;" style="text;strokeColor=none;align=left;fillColor=none;html=1;verticalAlign=middle;whiteSpace=wrap;rounded=0;" vertex="1" parent="6uN0h12TOaU6zcGamB1m-8">
          <mxGeometry x="150" y="80" width="380" height="5" as="geometry" />
        </mxCell>
        <mxCell id="6uN0h12TOaU6zcGamB1m-10" value="&lt;span style=&quot;font-size: 20px;&quot;&gt;+displayInfo(): string&lt;br&gt;+ReStock (int quantity)&amp;nbsp;&lt;br&gt;&lt;/span&gt;" style="text;strokeColor=none;align=center;fillColor=none;html=1;verticalAlign=middle;whiteSpace=wrap;rounded=0;" vertex="1" parent="6uN0h12TOaU6zcGamB1m-8">
          <mxGeometry x="20" y="245" width="380" height="30" as="geometry" />
        </mxCell>
        <mxCell id="6uN0h12TOaU6zcGamB1m-12" value="" style="endArrow=none;html=1;rounded=0;" edge="1" parent="6uN0h12TOaU6zcGamB1m-8">
          <mxGeometry width="50" height="50" relative="1" as="geometry">
            <mxPoint y="145" as="sourcePoint" />
            <mxPoint x="410" y="145" as="targetPoint" />
          </mxGeometry>
        </mxCell>
      </root>
    </mxGraphModel>
  </diagram>
</mxfile>
